<?xml version="1.0"?>
<svg xmlns="http://www.w3.org/2000/svg" xmlns:xlink="http://www.w3.org/1999/xlink" viewBox="0 0 512 512" width="512" height="512"><linearGradient id="a" gradientUnits="userSpaceOnUse" x1="256" x2="256" y1="10" y2="502.016"><stop offset="0" stop-color="#00efd1"/><stop offset="1" stop-color="#00acea"/></linearGradient><linearGradient id="b" x1="248.168" x2="248.168" xlink:href="#a" y1="10" y2="502.016"/><linearGradient id="c" x1="308.216" x2="308.216" xlink:href="#a" y1="10" y2="502.016"/><path d="m448.154 95h-279.877a10.1 10.1 0 0 0 -10.277 9.835v42.165h-94.154a9.913 9.913 0 0 0 -9.846 10.051v250.114a9.9 9.9 0 0 0 9.883 10 9.761 9.761 0 0 0 5.806-1.695l63.683-45.47h210.351a10.546 10.546 0 0 0 10.277-10.352v-42.648h24.628l63.7 45.862a10.115 10.115 0 0 0 5.825 1.979 9.63 9.63 0 0 0 4.491-1.05 9.849 9.849 0 0 0 5.356-8.842v-250.114a9.73 9.73 0 0 0 -9.846-9.835zm-114.154 255h-203.841a9.611 9.611 0 0 0 -5.747 1.695l-50.412 36.005v-220.7h84v140.433c0 5.522 4.755 9.567 10.277 9.567h165.723zm104-14.519-50.412-36.394a10 10 0 0 0 -5.747-2.087h-203.841v-182h260z" fill="url(#a)"/><path d="m219.449 170h57.438a10 10 0 0 0 0-20h-57.438a10 10 0 0 0 0 20z" fill="url(#b)"/><g fill="url(#c)"><path d="m219.449 259h177.534a10 10 0 0 0 0-20h-177.534a10 10 0 0 0 0 20z"/><path d="m219.449 212h177.534a10 10 0 0 0 0-20h-177.534a10 10 0 0 0 0 20z"/></g></svg>
